HIERARCHY
ROOT Hips
{
	OFFSET 0.000000 0.000000 0.000000 
	CHANNELS 6 Xposition Yposition Zposition Zrotation Yrotation Xrotation
	JOINT LeftUpLeg
	{
		OFFSET 1.363060 -1.794630 0.839290 
		CHANNELS 3 Zrotation Yrotation Xrotation
		JOINT LeftLeg
		{
			OFFSET 2.448110 -6.726130 0.000000 
			CHANNELS 3 Zrotation Yrotation Xrotation
			JOINT LeftFoot
			{
				OFFSET 2.562200 -7.039590 0.000000 
				CHANNELS 3 Zrotation Yrotation Xrotation
				JOINT LeftToeBase
				{
					OFFSET 0.157640 -0.433110 2.322550 
					CHANNELS 3 Zrotation Yrotation Xrotation
					End Site
					{
						OFFSET 0.000000 0.000000 0.000000 
					}
				}
			}
		}
	}
	JOINT RightUpLeg
	{
		OFFSET -1.305520 -1.794630 0.839290 
		CHANNELS 3 Zrotation Yrotation Xrotation
		JOINT RightLeg
		{
			OFFSET -2.542530 -6.985550 0.000000 
			CHANNELS 3 Zrotation Yrotation Xrotation
			JOINT RightFoot
			{
				OFFSET -2.568260 -7.056230 0.000000 
				CHANNELS 3 Zrotation Yrotation Xrotation
				JOINT RightToeBase
				{
					OFFSET -0.164730 -0.452590 2.363150 
					CHANNELS 3 Zrotation Yrotation Xrotation
					End Site
					{
						OFFSET 0.000000 0.000000 0.000000 
					}
				}
			}
		}
	}
	JOINT Spine
	{
		OFFSET 0.028270 2.035590 -0.193380 
		CHANNELS 3 Zrotation Yrotation Xrotation
		JOINT Spine1
		{
			OFFSET 0.056720 2.048850 -0.042750 
			CHANNELS 3 Zrotation Yrotation Xrotation
			JOINT Neck1
			{
				OFFSET -0.054170 1.746240 0.172020 
				CHANNELS 3 Zrotation Yrotation Xrotation
				JOINT Head
				{
					OFFSET 0.104070 1.761360 -0.123970 
					CHANNELS 3 Zrotation Yrotation Xrotation
					End Site
					{
						OFFSET 0.000000 0.000000 0.000000 
					}
				}
			}
			JOINT LeftArm
			{
				OFFSET 3.362410 1.200890 -0.311210 
				CHANNELS 3 Zrotation Yrotation Xrotation
				JOINT LeftForeArm
				{
					OFFSET 4.983000 -0.000000 -0.000000 
					CHANNELS 3 Zrotation Yrotation Xrotation
					JOINT LeftHand
					{
						OFFSET 3.483560 -0.000000 -0.000000 
						CHANNELS 3 Zrotation Yrotation Xrotation
						JOINT LeftHandIndex1
						{
							OFFSET 0.715260 -0.000000 -0.000000 
							CHANNELS 3 Zrotation Yrotation Xrotation
							End Site
							{
								OFFSET 0.000000 0.000000 0.000000 
							}
						}
					}
				}
			}
			JOINT RightArm
			{
				OFFSET -3.136600 1.374050 -0.404650 
				CHANNELS 3 Zrotation Yrotation Xrotation
				JOINT RightForeArm
				{
					OFFSET -5.241900 -0.000000 -0.000000 
					CHANNELS 3 Zrotation Yrotation Xrotation
					JOINT RightHand
					{
						OFFSET -3.444170 -0.000000 -0.000000 
						CHANNELS 3 Zrotation Yrotation Xrotation
						JOINT RightHandIndex1
						{
							OFFSET -0.622530 -0.000000 -0.000000 
							CHANNELS 3 Zrotation Yrotation Xrotation
							End Site
							{
								OFFSET 0.000000 0.000000 0.000000 
							}
						}
					}
				}
			}
		}
	}
}
MOTION
Frames: 16
Frame Time: 0.041667
-35.814193 17.439041 1.193291 -3.197077 88.523479 -9.082817 -23.465225 -15.981964 0.067313 -0.142598 10.978631 30.168361 -4.945718 17.442186 -12.576878 0.307400 -3.564300 -9.853900 30.132479 13.543215 0.933223 -1.081380 -11.776871 31.764282 4.262060 -21.301587 -26.412326 -0.739800 5.494700 -15.325100 1.429892 3.117308 0.712143 -7.233624 1.235387 2.082557 9.366014 0.708899 17.679659 -0.590100 1.967800 7.407600 -93.560691 2.087333 42.009410 11.685171 -15.037783 -3.039499 -1.722745 -3.536336 2.751531 -7.125000 0.000000 0.000000 105.833870 -7.147618 27.841233 -13.769820 23.010016 -5.532296 -0.024574 1.780517 -4.259104 7.125000 0.000000 0.000000 
-35.816186 17.439158 1.196690 -11.506244 88.330576 -17.452369 -23.234208 -16.002319 -0.019942 -0.090708 11.064920 30.414247 -4.910965 17.361505 -12.674969 0.321700 -3.645500 -10.081400 30.526732 13.762446 1.147782 -1.079457 -11.778430 31.794528 4.215730 -21.300503 -26.689889 -0.682300 5.281300 -14.712700 1.434475 3.142062 0.707369 -7.377103 1.268513 2.004379 9.400608 0.767078 17.715830 -0.595900 2.014400 7.413900 -93.534222 2.104057 42.198812 11.677228 -14.998086 -2.998813 -1.914031 -3.537099 2.517761 -7.125000 0.000000 0.000000 105.981661 -7.349772 29.202378 -13.934530 23.138246 -5.517580 0.188965 2.082285 -7.397104 7.125000 0.000000 0.000000 
-35.816655 17.422278 1.201730 -9.716216 88.385143 -15.678102 -22.488396 -13.577054 -1.250026 0.006880 11.099064 30.571859 -4.413049 15.741037 -10.826487 0.452500 -4.315700 -11.966600 30.458573 13.668826 1.043281 -1.102611 -11.814854 31.895765 4.210795 -21.251082 -26.609113 -0.690500 5.312200 -14.801300 1.429991 3.118405 0.704295 -7.405107 1.249245 1.999541 9.420176 0.828053 17.797560 -0.613400 2.068800 7.467000 -93.508244 2.086571 42.459846 11.684224 -14.994541 -2.971412 -2.082029 -3.562922 2.158442 -7.125000 0.000000 0.000000 106.129281 -7.541330 30.491888 -14.128107 23.302507 -5.514032 0.402218 2.350515 -10.492752 7.125000 0.000000 0.000000 
-35.810911 17.430015 1.204426 -3.632173 88.346255 -9.533594 -22.894919 -14.350298 -0.827884 -0.028208 11.084662 30.530813 -4.564153 16.265107 -11.605581 0.375700 -3.936900 -10.899200 30.267356 13.688340 0.947076 -1.111346 -11.832251 31.921737 4.229484 -21.221939 -26.427887 -0.724000 5.437100 -15.159600 1.423467 3.122707 0.706200 -7.402924 1.235456 2.086794 9.419512 0.915639 17.894070 -0.635000 2.132800 7.520300 -93.504969 2.114125 42.790583 11.736824 -15.092215 -2.976170 -2.253413 -3.621931 1.421470 -7.125000 0.000000 0.000000 106.246209 -7.751081 31.999313 -14.387105 23.541273 -5.523449 0.636205 2.645982 -13.981750 7.125000 0.000000 0.000000 
-35.808098 17.431304 1.207123 -1.506548 88.302969 -7.384267 -22.995286 -14.478148 -0.722173 -0.043036 11.066127 30.485709 -4.598143 16.382153 -11.774737 0.358200 -3.844900 -10.640800 30.206337 13.715890 0.895878 -1.121548 -11.854444 31.975843 4.207156 -21.146153 -26.407485 -0.721900 5.429400 -15.137300 1.423359 3.119682 0.704577 -7.413296 1.226032 2.115644 9.413447 0.961508 17.928849 -0.658100 2.166200 7.536300 -93.508921 2.131901 43.052240 11.768240 -15.142546 -2.968587 -2.410480 -3.653962 0.898844 -7.125000 0.000000 0.000000 106.335852 -7.944488 33.236580 -14.605960 23.741822 -5.528887 0.821957 2.873986 -16.908965 7.125000 0.000000 0.000000 
-35.805167 17.433883 1.209115 0.572549 88.258433 -5.274876 -23.165630 -14.816563 -0.460545 -0.089365 11.005617 30.313243 -4.701153 16.697115 -12.047323 0.332300 -3.704700 -10.247400 30.126531 13.722019 0.864302 -1.117565 -11.851641 31.955924 4.195290 -21.084401 -26.355227 -0.718900 5.418200 -15.105400 1.426359 3.113233 0.703267 -7.398928 1.213733 2.146604 9.397211 0.986501 17.939005 -0.680800 2.181900 7.536400 -93.530692 2.148977 43.267086 11.799467 -15.193827 -2.966361 -2.540547 -3.677488 0.436961 -7.125000 0.000000 0.000000 106.380705 -8.109684 34.243982 -14.794101 23.918679 -5.537064 0.972127 3.046099 -19.301199 7.125000 0.000000 0.000000 
-35.802588 17.436931 1.210287 2.023288 88.210118 -3.800422 -23.380328 -15.311960 -0.141252 -0.130939 10.961487 30.183079 -4.827277 17.100828 -12.458685 0.303400 -3.541700 -9.790800 30.064241 13.728443 0.840233 -1.115119 -11.850442 31.944512 4.177815 -21.015346 -26.322145 -0.711800 5.392000 -15.030000 1.432296 3.103500 0.703129 -7.370937 1.201361 2.172439 9.374612 0.994008 17.925454 -0.700900 2.182400 7.518700 -93.568453 2.160935 43.403489 11.825112 -15.236552 -2.969509 -2.632920 -3.675913 0.099575 -7.125000 0.000000 0.000000 106.380579 -8.233480 34.962972 -14.931613 24.049902 -5.543640 1.078409 3.161628 -20.991508 7.125000 0.000000 0.000000 
-35.800478 17.439041 1.211108 3.105031 88.175468 -2.704251 -23.557661 -15.708190 0.123260 -0.165245 10.923405 30.071862 -4.931735 17.434479 -12.782898 0.283500 -3.424400 -9.462600 30.013570 13.724742 0.825358 -1.113493 -11.848988 31.935792 4.162797 -20.954178 -26.289484 -0.704500 5.364700 -14.951700 1.439562 3.086021 0.704516 -7.335527 1.186274 2.192935 9.350535 0.987105 17.893679 -0.715600 2.170400 7.486300 -93.617482 2.164698 43.454512 11.844760 -15.269450 -2.977840 -2.684060 -3.653984 -0.093739 -7.125000 0.000000 0.000000 106.346390 -8.312787 35.396404 -15.013779 24.128071 -5.545508 1.141527 3.230213 -21.976635 7.125000 0.000000 0.000000 
-35.798837 17.439861 1.211577 4.148615 88.165461 -1.654010 -23.672201 -15.910632 0.274949 -0.185476 10.898430 30.001086 -4.991426 17.623601 -12.949790 0.275500 -3.376200 -9.327900 29.963795 13.706877 0.816719 -1.112778 -11.846460 31.925931 4.161691 -20.927367 -26.239354 -0.705000 5.366600 -14.957300 1.446605 3.059313 0.708328 -7.301745 1.167519 2.216410 9.324636 0.975322 17.864248 -0.730900 2.156100 7.452600 -93.670822 2.156764 43.436352 11.860057 -15.296276 -2.991442 -2.699648 -3.613021 -0.166722 -7.125000 0.000000 0.000000 106.297499 -8.353085 35.604964 -15.051288 24.162373 -5.542678 1.171501 3.266344 -22.407479 7.125000 0.000000 0.000000 
-35.797431 17.439861 1.211811 4.799948 88.146345 -1.001615 -23.710973 -15.921119 0.311744 -0.191590 10.888287 29.975596 -5.006931 17.671318 -12.983633 0.275300 -3.374900 -9.324200 29.931051 13.689782 0.817712 -1.112723 -11.842981 31.913944 4.174699 -20.932955 -26.164240 -0.714600 5.402100 -15.059100 1.452089 3.039102 0.714638 -7.279150 1.154195 2.246335 9.300776 0.962000 17.841642 -0.743100 2.142000 7.422900 -93.719411 2.134355 43.371989 11.872297 -15.318294 -3.008693 -2.682124 -3.570241 -0.150268 -7.125000 0.000000 0.000000 106.247965 -8.358143 35.629823 -15.052815 24.160829 -5.535499 1.174942 3.279040 -22.402375 7.125000 0.000000 0.000000 
-35.795672 17.439627 1.212046 3.717110 88.084519 -2.097947 -23.687161 -15.927740 0.334443 -0.190384 10.891420 29.987098 -5.012548 17.694551 -13.040064 0.273800 -3.365600 -9.298400 29.981608 13.688452 0.863213 -1.109247 -11.831552 31.885251 4.193968 -20.963729 -26.098990 -0.725100 5.440900 -15.170400 1.458155 3.040810 0.724097 -7.284272 1.157944 2.281412 9.277514 0.942464 17.826232 -0.756200 2.126900 7.399100 -93.754859 2.100526 43.333134 11.885599 -15.341257 -3.026486 -2.653741 -3.544201 -0.141848 -7.125000 0.000000 0.000000 106.216646 -8.355968 35.630517 -15.053352 24.159214 -5.529222 1.175979 3.292145 -22.387691 7.125000 0.000000 0.000000 
-35.794031 17.439041 1.212397 2.320120 88.009362 -3.510668 -23.648440 -15.930784 0.343533 -0.183828 10.903450 30.024619 -5.011078 17.700935 -13.108769 0.273200 -3.362300 -9.289000 30.051712 13.699016 0.923697 -1.101648 -11.813845 31.839016 4.211236 -20.997371 -26.052873 -0.732200 5.466800 -15.244900 1.461639 3.057861 0.734004 -7.307302 1.171240 2.320113 9.254414 0.913530 17.818017 -0.772900 2.110200 7.385300 -93.770726 2.054382 43.341579 11.900575 -15.366432 -3.043809 -2.617172 -3.545110 -0.148045 -7.125000 0.000000 0.000000 106.206227 -8.347353 35.599224 -15.053583 24.159045 -5.525298 1.174738 3.302339 -22.372480 7.125000 0.000000 0.000000 
-35.792742 17.438454 1.213218 -0.415984 87.893028 -6.268530 -23.544969 -15.920726 0.335973 -0.173874 10.920364 30.075517 -5.008710 17.700832 -13.170790 0.274100 -3.367700 -9.304300 30.193018 13.726126 1.010428 -1.089859 -11.790733 31.779071 4.219056 -21.019303 -26.042332 -0.732500 5.468100 -15.248500 1.465508 3.096195 0.744074 -7.352051 1.199601 2.356323 9.234851 0.881922 17.816089 -0.788700 2.094600 7.381800 -93.771021 2.000256 43.390048 11.917600 -15.393257 -3.059912 -2.577098 -3.569890 -0.171074 -7.125000 0.000000 0.000000 106.210862 -8.331174 35.540109 -15.052713 24.159139 -5.523113 1.172328 3.307976 -22.362021 7.125000 0.000000 0.000000 
-35.792156 17.438220 1.214273 -2.794085 87.792050 -8.660108 -23.440881 -15.901791 0.315260 -0.164163 10.935614 30.120967 -5.008287 17.701330 -13.206562 0.278300 -3.393000 -9.374800 30.318288 13.746966 1.075571 -1.078483 -11.771181 31.726330 4.213819 -21.011719 -26.054113 -0.726600 5.446600 -15.186700 1.467560 3.132695 0.751265 -7.402485 1.226406 2.382976 9.222085 0.851043 17.811587 -0.801300 2.079900 7.378600 -93.763989 1.946427 43.464463 11.935169 -15.418482 -3.072472 -2.544468 -3.610332 -0.211342 -7.125000 0.000000 0.000000 106.222827 -8.312324 35.465921 -15.050068 24.158010 -5.521978 1.169436 3.307776 -22.359822 7.125000 0.000000 0.000000 
-35.792390 17.438220 1.215328 -3.948596 87.740558 -9.815452 -23.381180 -15.884701 0.289075 -0.157114 10.946771 30.152348 -5.010231 17.705987 -13.217017 0.284900 -3.432600 -9.485700 30.376159 13.748838 1.100499 -1.069974 -11.758129 31.689911 4.198285 -20.973788 -26.072801 -0.716700 5.409900 -15.081600 1.466443 3.153984 0.754742 -7.449157 1.242417 2.399115 9.215256 0.826965 17.800678 -0.811200 2.068100 7.370400 -93.755735 1.898594 43.541841 11.950173 -15.439317 -3.082429 -2.515730 -3.652352 -0.265494 -7.125000 0.000000 0.000000 106.235578 -8.296805 35.403277 -15.049522 24.161078 -5.524216 1.166120 3.303865 -22.373897 7.125000 0.000000 0.000000 
-35.793328 17.438689 1.216383 -3.771301 87.748692 -9.625990 -23.379184 -15.881036 0.263790 -0.154057 10.952954 30.165621 -5.013727 17.714112 -13.205828 0.290700 -3.466900 -9.581600 30.355403 13.729288 1.084461 -1.065622 -11.752159 31.672735 4.176339 -20.913221 -26.087975 -0.705000 5.366700 -14.957500 1.462561 3.152464 0.753908 -7.485925 1.243403 2.404212 9.214275 0.818108 17.789311 -0.815100 2.063300 7.361000 -93.753484 1.866036 43.598373 11.962742 -15.456072 -3.089570 -2.494430 -3.689925 -0.327591 -7.125000 0.000000 0.000000 106.242315 -8.288159 35.372243 -15.053280 24.169852 -5.529358 1.163017 3.300235 -22.404464 7.125000 0.000000 0.000000 
